<svg width="167" height="23" viewBox="0 0 167 23" fill="none" xmlns="http://www.w3.org/2000/svg">
<path d="M0.617008 14.6836V1.42976H3.0089V14.8525C3.0089 16.569 3.47789 17.8869 4.41589 18.8061C5.35389 19.7254 6.73274 20.185 8.55245 20.185C10.2877 20.185 11.6244 19.7254 12.5624 18.8061C13.5004 17.8775 13.9694 16.5502 13.9694 14.8243V1.42976H16.3613V14.7399C16.3613 17.0849 15.6531 18.9281 14.2367 20.2694C12.8203 21.6107 10.874 22.2814 8.39768 22.2814C5.92137 22.2814 4.00317 21.606 2.64308 20.2553C1.29236 18.9046 0.617008 17.0474 0.617008 14.6836ZM21.4687 22V6.57935H23.3962L23.6636 9.43555H23.7761C24.3483 8.43189 25.0377 7.65805 25.8444 7.11401C26.6511 6.56997 27.5375 6.29795 28.5036 6.29795C29.1884 6.29795 29.8027 6.35423 30.3468 6.46679L30.0232 8.63356C29.3853 8.49286 28.8225 8.42251 28.3348 8.42251C27.0872 8.42251 26.0179 8.92903 25.1268 9.94207C24.2451 10.9551 23.8043 12.2167 23.8043 13.7269V22H21.4687ZM33.2311 22V0.107182H35.5667V5.42562C35.5667 6.61687 35.5292 7.68619 35.4542 8.63356H35.5667C36.6548 7.09525 38.2682 6.32609 40.4068 6.32609C42.4329 6.32609 44.004 7.02021 45.1202 8.40844C46.2458 9.7873 46.8086 11.743 46.8086 14.2756C46.8086 16.8082 46.2411 18.778 45.1061 20.185C43.9805 21.5826 42.4141 22.2814 40.4068 22.2814C39.4031 22.2814 38.4839 22.0985 37.6491 21.7327C36.8236 21.3575 36.1295 20.7853 35.5667 20.0161H35.3979L34.9054 22H33.2311ZM35.5667 14.2756C35.5667 16.4424 35.9279 17.9948 36.6501 18.9328C37.3724 19.8614 38.5308 20.3257 40.1254 20.3257C41.5605 20.3257 42.6298 19.8051 43.3333 18.7639C44.0368 17.7134 44.3886 16.2079 44.3886 14.2475C44.3886 12.2402 44.0368 10.7441 43.3333 9.75916C42.6298 8.77426 41.5418 8.28181 40.0691 8.28181C38.4745 8.28181 37.3255 8.74143 36.622 9.66067C35.9185 10.5705 35.5667 12.1088 35.5667 14.2756ZM49.7492 17.7368C49.7492 14.6227 52.2396 12.9906 57.2204 12.8405L59.8374 12.7561V11.7993C59.8374 10.5893 59.5747 9.69819 59.0494 9.12601C58.5335 8.54445 57.7034 8.25367 56.5591 8.25367C55.274 8.25367 53.8201 8.64763 52.1974 9.43555L51.4798 7.64867C52.2396 7.23595 53.0697 6.91234 53.9702 6.67784C54.8801 6.44334 55.7899 6.32609 56.6998 6.32609C58.5382 6.32609 59.8983 6.73412 60.78 7.55018C61.6711 8.36623 62.1167 9.67474 62.1167 11.4757V22H60.3861L59.9218 19.8051H59.8092C59.0401 20.7712 58.2709 21.4278 57.5018 21.7749C56.742 22.1126 55.7899 22.2814 54.6456 22.2814C53.1166 22.2814 51.916 21.8874 51.0437 21.0995C50.1807 20.3116 49.7492 19.1907 49.7492 17.7368ZM52.1974 17.7649C52.1974 18.6091 52.4506 19.2517 52.9572 19.6925C53.4731 20.1334 54.1906 20.3538 55.1099 20.3538C56.5638 20.3538 57.7034 19.9552 58.5289 19.1579C59.3637 18.3606 59.7811 17.2444 59.7811 15.8092V14.4163L57.4455 14.5148C55.5882 14.5805 54.2469 14.8712 53.4215 15.3871C52.6054 15.8936 52.1974 16.6863 52.1974 17.7649ZM66.9427 22V6.57935H68.8421L69.222 8.68984H69.3346C69.8129 7.93007 70.4836 7.34382 71.3466 6.9311C72.2095 6.509 73.171 6.29795 74.2309 6.29795C76.0881 6.29795 77.4857 6.74819 78.4237 7.64867C79.3617 8.53976 79.8307 9.97021 79.8307 11.94V22H77.4951V12.0244C77.4951 10.7675 77.209 9.82951 76.6369 9.21043C76.0647 8.59135 75.1689 8.28181 73.9495 8.28181C72.3362 8.28181 71.1543 8.71798 70.4039 9.59032C69.6535 10.4627 69.2783 11.9025 69.2783 13.9098V22H66.9427ZM133.719 20.5086C133.719 19.8801 133.859 19.4064 134.141 19.0875C134.431 18.7592 134.844 18.5951 135.379 18.5951C135.923 18.5951 136.345 18.7592 136.645 19.0875C136.955 19.4064 137.109 19.8801 137.109 20.5086C137.109 21.1183 136.955 21.5873 136.645 21.9156C136.336 22.2439 135.913 22.408 135.379 22.408C134.9 22.408 134.502 22.2626 134.183 21.9719C133.873 21.6717 133.719 21.1839 133.719 20.5086ZM141.738 22V6.57935H143.666L143.933 9.43555H144.046C144.618 8.43189 145.308 7.65805 146.114 7.11401C146.921 6.56997 147.807 6.29795 148.773 6.29795C149.458 6.29795 150.073 6.35423 150.617 6.46679L150.293 8.63356C149.655 8.49286 149.092 8.42251 148.605 8.42251C147.357 8.42251 146.288 8.92903 145.397 9.94207C144.515 10.9551 144.074 12.2167 144.074 13.7269V22H141.738ZM153.332 16.6675V6.57935H155.696V16.5831C155.696 17.84 155.982 18.778 156.554 19.3971C157.126 20.0161 158.022 20.3257 159.241 20.3257C160.855 20.3257 162.032 19.8848 162.773 19.0031C163.523 18.1214 163.899 16.6816 163.899 14.6836V6.57935H166.234V22H164.307L163.969 19.9317H163.842C163.364 20.6915 162.698 21.2731 161.844 21.6764C161 22.0797 160.034 22.2814 158.946 22.2814C157.07 22.2814 155.663 21.8359 154.725 20.9448C153.796 20.0537 153.332 18.6279 153.332 16.6675Z" fill="white"/>
<path d="M83.6578 21.3387V19.0312C84.502 19.3877 85.4212 19.6691 86.4155 19.8754C87.4097 20.0818 88.3946 20.185 89.3702 20.185C90.9647 20.185 92.1654 19.8848 92.9721 19.2845C93.7787 18.6748 94.1821 17.8306 94.1821 16.7519C94.1821 16.039 94.0367 15.4575 93.7459 15.0072C93.4645 14.5476 92.9861 14.1255 92.3108 13.7409C91.6448 13.3564 90.6271 12.9202 89.2576 12.4324C87.3441 11.7477 85.9746 10.9363 85.1492 9.99835C84.3331 9.06035 83.9251 7.83627 83.9251 6.32609C83.9251 4.74088 84.5207 3.47928 85.712 2.54128C86.9032 1.60329 88.4791 1.13429 90.4395 1.13429C92.4843 1.13429 94.365 1.50949 96.0815 2.25988L95.3358 4.34223C93.638 3.62936 91.9872 3.27292 90.3832 3.27292C89.1169 3.27292 88.1273 3.54494 87.4144 4.08897C86.7016 4.63301 86.3451 5.3881 86.3451 6.35423C86.3451 7.06711 86.4764 7.65336 86.7391 8.11297C87.0017 8.56321 87.4426 8.98062 88.0616 9.3652C88.6901 9.7404 89.6469 10.1578 90.9319 10.6174C93.0893 11.3866 94.5713 12.212 95.378 13.0937C96.1941 13.9754 96.6021 15.1198 96.6021 16.5268C96.6021 18.3371 95.9455 19.7488 94.6323 20.7618C93.3191 21.7749 91.5369 22.2814 89.2857 22.2814C86.8469 22.2814 84.971 21.9672 83.6578 21.3387ZM99.599 14.4163C99.599 11.9306 100.209 9.95614 101.428 8.49286C102.657 7.02959 104.303 6.29795 106.367 6.29795C108.299 6.29795 109.828 6.93579 110.953 8.21146C112.079 9.47776 112.642 11.1521 112.642 13.2344V14.7118H102.019C102.066 16.5221 102.521 17.8963 103.384 18.8343C104.256 19.7723 105.48 20.2413 107.056 20.2413C108.716 20.2413 110.358 19.8942 111.981 19.2001V21.2824C111.155 21.6389 110.372 21.8921 109.631 22.0422C108.899 22.2017 108.013 22.2814 106.972 22.2814C104.692 22.2814 102.891 21.5873 101.569 20.199C100.256 18.8108 99.599 16.8832 99.599 14.4163ZM102.075 12.8123H110.137C110.137 11.3397 109.809 10.2141 109.152 9.43555C108.496 8.64763 107.558 8.25367 106.338 8.25367C105.1 8.25367 104.111 8.65701 103.37 9.46369C102.638 10.2704 102.207 11.3866 102.075 12.8123ZM115.779 14.2756C115.779 11.7618 116.408 9.80606 117.665 8.40844C118.922 7.00145 120.666 6.29795 122.899 6.29795C125.056 6.29795 126.768 7.01552 128.034 8.45065C129.31 9.88579 129.948 11.8274 129.948 14.2756C129.948 16.7894 129.315 18.7545 128.048 20.1709C126.782 21.5779 125.033 22.2814 122.8 22.2814C121.421 22.2814 120.197 21.9578 119.128 21.3106C118.059 20.6634 117.233 19.7347 116.652 18.5247C116.07 17.3147 115.779 15.8983 115.779 14.2756ZM118.199 14.2756C118.199 16.2454 118.593 17.7462 119.381 18.778C120.169 19.8098 121.328 20.3257 122.857 20.3257C124.386 20.3257 125.544 19.8145 126.332 18.7921C127.129 17.7603 127.528 16.2548 127.528 14.2756C127.528 12.3152 127.129 10.8285 126.332 9.81544C125.544 8.79302 124.376 8.28181 122.828 8.28181C121.3 8.28181 120.146 8.78364 119.367 9.7873C118.589 10.791 118.199 12.2871 118.199 14.2756Z" fill="#FDB817"/>
</svg>
