<svg width="44" height="39" viewBox="0 0 44 39" fill="none" xmlns="http://www.w3.org/2000/svg">
<g clip-path="url(#clip0)">
<path d="M44 11.7608L43.4942 6.24114L37.7743 6.14258L39.5155 7.71961C24.5446 26.3825 0 35.7881 0 35.7881C0 35.7881 28.7172 27.786 42.069 10.0168L44 11.7608Z" fill="url(#paint0_radial)"/>
<path d="M40.8038 13.9607C35.267 20.3424 27.7138 25.4954 20.1836 29.3657C26.7306 26.4994 33.7862 22.5542 39.6389 17.283C41.7259 32.659 23.4856 43.0254 10.6017 33.7104C9.92095 33.9802 9.26461 34.233 8.63269 34.4687C12.2429 37.4015 16.8044 39.0069 21.5152 39.0026C34.8805 39 44.6401 26.4915 40.8038 13.9607Z" fill="white"/>
<path d="M21.5138 0C4.75704 0 -4.70689 18.8521 5.76323 31.6142C6.30565 31.3514 7.25489 30.8704 7.42305 30.7784C12.6452 28.1014 22.1295 22.75 28.6372 17.003C21.8705 21.9286 12.6154 27.0356 6.53347 29.6364C-1.90934 17.9558 6.75044 1.78205 21.5138 1.78205C24.4205 1.78369 27.2849 2.45753 29.8689 3.74758C32.4529 5.03764 34.6819 6.90665 36.3708 9.19935C36.7803 8.735 37.1871 8.26408 37.5913 7.78659C35.7185 5.36881 33.2909 3.40656 30.5004 2.0551C27.71 0.703641 24.6333 5.06456e-05 21.5138 0V0Z" fill="white"/>
<path d="M6.37341 33.2886C14.6928 29.2028 29.5444 20.6921 39.788 7.92468L39.9833 7.68155L38.672 6.49878L43.1741 6.57632L43.5728 10.9237L42.0187 9.51354L41.7882 9.81975C34.9333 18.9429 23.9127 25.4297 15.874 29.2698C12.3279 30.9559 9.03671 32.2951 6.37341 33.2886Z" fill="#FDB817"/>
<path d="M21.5138 38.6648C17.0875 38.6613 12.7903 37.2194 9.30933 34.5698C9.71614 34.4134 10.1325 34.253 10.5461 34.0901C13.768 36.3728 17.5094 37.5766 21.3769 37.5766C26.7292 37.5766 32.0613 35.2177 35.6385 31.2685C39.1385 27.3995 40.679 22.4187 39.9779 17.2434L39.8898 16.5982L39.3975 17.041C36.5498 19.609 33.2437 22.01 29.5214 24.2244C33.8906 21.2399 37.6496 18.0135 40.641 14.6624C41.399 17.4955 41.478 20.4592 40.8722 23.3265C40.2664 26.1939 38.9917 28.8889 37.1458 31.2054C35.2998 33.5218 32.9315 35.3983 30.2221 36.6912C27.5126 37.9841 24.5339 38.6592 21.5138 38.6648Z" fill="url(#paint1_linear)"/>
<path d="M22.8361 9.47144H27.2093V15.8361C25.8682 16.8033 24.3996 17.7982 22.8361 18.8009V9.47144Z" fill="#F0F8FC"/>
<path d="M15.1173 13.8306H19.4906V20.8733C18.0776 21.7197 16.609 22.5634 15.1173 23.3861V13.8306Z" fill="#F0F8FC"/>
<path d="M7.81085 17.9163H12.1841V24.9577C10.6437 25.758 9.17504 26.4861 7.81085 27.1209V17.9163Z" fill="#F0F8FC"/>
<path d="M5.86088 31.1898C1.2652 25.4271 0.443429 17.7903 3.7278 11.1944C7.06099 4.492 13.8765 0.33652 21.5139 0.33652C24.5338 0.327304 27.5153 0.993721 30.226 2.28388C32.9367 3.57405 35.3036 5.45314 37.1424 7.77485C36.901 8.06266 36.6515 8.3531 36.3898 8.65273C34.6527 6.41993 32.4057 4.60731 29.8248 3.35694C27.2439 2.10656 24.3993 1.45239 21.5139 1.4457C14.4542 1.4457 8.28551 5.08207 5.01741 11.1707C1.74931 17.2594 2.20224 24.2351 6.23786 29.8323L6.40195 30.0583L6.66231 29.9466C10.1881 28.4405 15.2258 25.8858 20.3029 22.8618C16.0995 25.6294 11.7442 28.1739 7.25626 30.4841C7.11116 30.5603 6.40195 30.9204 5.86088 31.1898Z" fill="#EFF7FC"/>
</g>
<defs>
<radialGradient id="paint0_radial" cx="0" cy="0" r="1" gradientUnits="userSpaceOnUse" gradientTransform="translate(22.0007 20.964) scale(18.9468 18.3619)">
<stop stop-color="white"/>
<stop offset="0.2" stop-color="#9D9D9C"/>
<stop offset="0.47" stop-color="#575756"/>
<stop offset="1" stop-color="white"/>
</radialGradient>
<linearGradient id="paint1_linear" x1="6002.81" y1="-432.743" x2="5978.65" y2="7771.34" gradientUnits="userSpaceOnUse">
<stop offset="0.03" stop-color="white"/>
<stop offset="0.34" stop-color="#52A9DF"/>
<stop offset="1" stop-color="#27235F"/>
</linearGradient>
<clipPath id="clip0">
<rect width="44" height="39" fill="white"/>
</clipPath>
</defs>
</svg>
